HIERARCHY
ROOT Hips
{
	OFFSET 0.000000 0.000000 0.000000
	CHANNELS 6 Xposition Yposition Zposition Xrotation Yrotation Zrotation
	JOINT LeftUpLeg_virtual
	{
		OFFSET 0.000000 0.000000 0.000000
		CHANNELS 3 Xrotation Yrotation Zrotation
		JOINT LeftUpLeg
		{
			OFFSET 11.394100 -6.187798 -0.413800
			CHANNELS 3 Xrotation Yrotation Zrotation
			JOINT LeftLeg
			{
				OFFSET 0.430247 -32.302673 3.732800
				CHANNELS 3 Xrotation Yrotation Zrotation
				JOINT LeftFoot
				{
					OFFSET -0.430247 -48.264931 -6.423300
					CHANNELS 3 Xrotation Yrotation Zrotation
					JOINT LeftToeBase
					{
						OFFSET 4.230900 -16.068199 23.438400
						CHANNELS 3 Xrotation Yrotation Zrotation
						JOINT LeftToe_End
						{
							OFFSET 4.510700 0.695400 19.974600
							CHANNELS 3 Xrotation Yrotation Zrotation
							End Site
							{
								OFFSET 0 0 0
							}
						}
					}
				}
			}
		}
	}
	JOINT RightUpLeg_virtual
	{
		OFFSET 0.000000 0.000000 0.000000
		CHANNELS 3 Xrotation Yrotation Zrotation
		JOINT RightUpLeg
		{
			OFFSET -11.333700 -6.187798 -0.413800
			CHANNELS 3 Xrotation Yrotation Zrotation
			JOINT RightLeg
			{
				OFFSET -0.430392 -32.302628 3.733000
				CHANNELS 3 Xrotation Yrotation Zrotation
				JOINT RightFoot
				{
					OFFSET 0.430392 -48.264973 -6.423500
					CHANNELS 3 Xrotation Yrotation Zrotation
					JOINT RightToeBase
					{
						OFFSET -4.230900 -16.068199 23.438400
						CHANNELS 3 Xrotation Yrotation Zrotation
						JOINT RightToe_End
						{
							OFFSET -4.510700 0.695400 19.974600
							CHANNELS 3 Xrotation Yrotation Zrotation
							End Site
							{
								OFFSET 0 0 0
							}
						}
					}
				}
			}
		}
	}
	JOINT Spine_virtual
	{
		OFFSET 0.000000 0.000000 0.000000
		CHANNELS 3 Xrotation Yrotation Zrotation
		JOINT Spine
		{
			OFFSET -0.002400 12.777504 0.315300
			CHANNELS 3 Xrotation Yrotation Zrotation
			JOINT Spine1
			{
				OFFSET -0.002067 5.816869 0.032633
				CHANNELS 3 Xrotation Yrotation Zrotation
				JOINT Spine1_split
				{
					OFFSET -0.002067 5.816869 0.032633
					CHANNELS 3 Xrotation Yrotation Zrotation
					JOINT Spine2
					{
						OFFSET -0.002067 5.816869 0.032633
						CHANNELS 3 Xrotation Yrotation Zrotation
						JOINT Neck_virtual
						{
							OFFSET 0.000000 0.000000 0.000000
							CHANNELS 3 Xrotation Yrotation Zrotation
							JOINT Neck
							{
								OFFSET -0.003700 21.199493 -0.826900
								CHANNELS 3 Xrotation Yrotation Zrotation
								JOINT Head
								{
									OFFSET 0.000000 20.442200 4.834800
									CHANNELS 3 Xrotation Yrotation Zrotation
									JOINT HeadTop_End
									{
										OFFSET 0.000000 34.668396 4.968400
										CHANNELS 3 Xrotation Yrotation Zrotation
										End Site
										{
											OFFSET 0 0 0
										}
									}
								}
							}
						}
						JOINT LeftShoulder_virtual
						{
							OFFSET 0.000000 0.000000 0.000000
							CHANNELS 3 Xrotation Yrotation Zrotation
							JOINT LeftShoulder
							{
								OFFSET 3.288150 8.794197 -1.372250
								CHANNELS 3 Xrotation Yrotation Zrotation
								JOINT LeftShoulder_split
								{
									OFFSET 3.288150 8.794197 -1.372250
									CHANNELS 3 Xrotation Yrotation Zrotation
									JOINT LeftArm
									{
										OFFSET 11.953299 -2.279007 -0.146200
										CHANNELS 3 Xrotation Yrotation Zrotation
										JOINT LeftForeArm
										{
											OFFSET 18.448900 0.000000 0.000000
											CHANNELS 3 Xrotation Yrotation Zrotation
											JOINT LeftHand
											{
												OFFSET 29.527798 0.000000 0.000000
												CHANNELS 3 Xrotation Yrotation Zrotation
												End Site
												{
													OFFSET 0 0 0
												}
											}
										}
									}
								}
							}
						}
						JOINT RightShoulder_virtual
						{
							OFFSET 0.000000 0.000000 0.000000
							CHANNELS 3 Xrotation Yrotation Zrotation
							JOINT RightShoulder
							{
								OFFSET -3.249400 8.794197 -1.372250
								CHANNELS 3 Xrotation Yrotation Zrotation
								JOINT RightShoulder_split
								{
									OFFSET -3.249400 8.794197 -1.372250
									CHANNELS 3 Xrotation Yrotation Zrotation
									JOINT RightArm
									{
										OFFSET -11.953299 -2.279007 -0.146200
										CHANNELS 3 Xrotation Yrotation Zrotation
										JOINT RightForeArm
										{
											OFFSET -18.448900 0.000000 0.000000
											CHANNELS 3 Xrotation Yrotation Zrotation
											JOINT RightHand
											{
												OFFSET -29.527802 0.000000 0.000000
												CHANNELS 3 Xrotation Yrotation Zrotation
												End Site
												{
													OFFSET 0 0 0
												}
											}
										}
									}
								}
							}
						}
					}
				}
			}
		}
	}
}
MOTION
Frames: 7
Frame Time: 0.03333333
5.520954 15.546204 178.071503 0.000000 0.000000 0.000000 -95.160846 -1.925793 -1.058603 -57.973068 -34.316346 20.024921 96.036346 -5.694236 4.650491 23.383311 -7.117572 -8.800398 -7.459846 0.150634 0.832454 0.000000 0.000000 0.000000 -98.571501 0.490850 0.218654 -62.693733 7.427464 -18.511950 94.249808 5.658879 -3.628858 17.659891 0.477256 9.846841 9.630997 0.814628 2.517273 0.000000 0.000000 0.000000 -96.412348 -1.748585 -2.776257 5.266669 -1.539056 2.390225 2.537375 -0.192782 -0.027470 0.611356 -1.134327 -0.160463 0.000000 0.000000 0.000000 1.036454 -0.643224 0.757966 10.191099 -1.681767 1.129319 20.489155 0.182496 0.403484 0.000000 0.000000 0.000000 0.098104 -0.238068 0.158526 0.116736 -15.836827 -5.236466 -4.190338 5.291986 -1.997201 66.700342 -21.330548 -39.663564 -0.764026 -39.513484 -0.801298 0.000000 0.000000 0.000000 0.418779 -0.980861 0.129227 -2.136730 4.189616 16.735475 9.684031 6.884697 -3.939586 71.045210 26.188506 23.283295 -0.074720 22.796216 0.133623 0.000000 0.000000 0.000000 
5.634690 15.473572 177.990570 0.000000 0.000000 0.000000 -95.417073 -2.224540 -1.171279 -58.091380 -34.162933 18.737924 95.456866 -4.789819 4.470724 22.572691 -6.508439 -8.017035 -7.587552 0.133671 0.660056 0.000000 0.000000 0.000000 -98.406681 0.088414 0.013649 -62.371068 6.409274 -19.513118 93.331523 5.574633 -3.771077 16.212417 0.837493 10.518621 10.008833 0.885833 2.583701 0.000000 0.000000 0.000000 -96.538358 -1.866632 -2.957507 5.797215 -1.548007 2.082646 2.673993 -0.194074 0.018314 0.572147 -0.978610 -0.107763 0.000000 0.000000 0.000000 1.206350 -0.611903 0.739960 10.910709 -2.264109 1.200724 22.259498 -0.803099 0.511420 0.000000 0.000000 0.000000 0.173446 -0.206472 0.249584 0.247415 -16.039748 -5.576917 -3.543220 5.683224 -2.148608 66.147452 -20.648522 -39.847634 -1.235543 -40.507980 -1.098600 0.000000 0.000000 0.000000 0.496730 -0.978234 0.114024 -2.399960 3.750092 17.294927 10.200900 6.848531 -3.971602 69.385891 25.271517 23.391784 -0.192999 22.987073 0.402686 0.000000 0.000000 0.000000 
5.724543 15.380287 178.034073 0.000000 0.000000 0.000000 -95.580895 -2.685328 -1.457416 -58.108244 -33.507542 17.994181 94.899591 -3.816615 4.195558 21.828668 -5.936071 -7.315537 -8.150198 0.116106 0.523784 0.000000 0.000000 0.000000 -98.188723 -0.300012 -0.219176 -61.660906 4.989668 -20.778663 92.038302 5.517826 -3.805918 14.624188 1.466787 11.454298 10.161825 0.878878 2.465659 0.000000 0.000000 0.000000 -96.696955 -1.995429 -3.126170 6.455759 -1.602479 1.726171 2.916301 -0.213301 0.063089 0.717926 -1.033532 -0.174734 0.000000 0.000000 0.000000 1.406000 -0.608868 0.721344 11.793484 -2.704984 1.144089 23.822383 -1.647953 0.516944 0.000000 0.000000 0.000000 0.330290 -0.219282 0.303095 0.425896 -15.871167 -5.894059 -2.706652 5.827909 -2.206169 65.420973 -19.796154 -39.565264 -2.027171 -40.984670 -1.570965 0.000000 0.000000 0.000000 0.652001 -1.001308 0.085495 -2.633214 3.413274 17.662557 10.686887 6.855323 -4.025898 67.235563 24.373827 23.916488 -0.366298 23.387886 0.652138 0.000000 0.000000 0.000000 
5.769666 15.280769 178.150116 0.000000 0.000000 0.000000 -95.623775 -3.196573 -1.867079 -58.377736 -32.573404 17.701960 94.599022 -3.078625 3.998807 21.626525 -5.780621 -6.922234 -8.982565 0.059169 0.538090 0.000000 0.000000 0.000000 -97.939770 -0.614588 -0.471679 -60.501003 3.182799 -22.115847 90.313153 5.459498 -3.729107 12.792139 2.230394 12.568326 10.202850 0.807984 2.150636 0.000000 0.000000 0.000000 -96.800426 -2.110048 -3.290208 7.163324 -1.692709 1.401358 3.266842 -0.231223 0.108080 0.848190 -1.210880 -0.228123 0.000000 0.000000 0.000000 1.653804 -0.631278 0.713978 12.803920 -3.014219 0.963277 25.135964 -2.299987 0.443321 0.000000 0.000000 0.000000 0.578325 -0.258698 0.329269 0.650528 -15.258161 -6.322669 -1.755847 5.701336 -2.096134 64.410473 -18.832097 -38.716442 -2.916165 -41.085657 -2.050112 0.000000 0.000000 0.000000 0.914190 -1.037834 0.065750 -2.854112 3.339035 18.011569 11.006376 6.952863 -4.118660 64.898989 23.607169 24.736602 -0.524571 23.731468 0.838419 0.000000 0.000000 0.000000 
5.762220 15.228386 178.239655 0.000000 0.000000 0.000000 -95.519581 -3.602226 -2.287132 -59.132349 -31.553558 17.585995 94.660213 -2.694905 3.940524 21.984921 -6.028569 -6.791120 -9.750733 -0.039860 0.710588 0.000000 0.000000 0.000000 -97.690536 -0.811819 -0.723131 -58.863772 1.116299 -23.336048 88.115396 5.382424 -3.578975 10.695592 2.950529 13.729284 10.327290 0.715393 1.679651 0.000000 0.000000 0.000000 -96.716906 -2.220595 -3.490741 7.806712 -1.798580 1.190590 3.682748 -0.234738 0.153896 0.888684 -1.435326 -0.411307 0.000000 0.000000 0.000000 1.960737 -0.679838 0.709059 13.840221 -3.185816 0.689487 26.186564 -2.799422 0.349377 0.000000 0.000000 0.000000 0.905850 -0.306048 0.335952 0.918159 -14.076862 -7.002405 -0.709011 5.274951 -1.867975 63.236535 -17.895820 -37.267455 -3.686683 -41.203246 -2.418447 0.000000 0.000000 0.000000 1.286336 -1.086717 0.060612 -3.081494 3.616654 18.455977 11.042542 7.098404 -4.129333 62.603301 23.008331 25.597034 -0.638388 23.781120 0.953634 0.000000 0.000000 0.000000 
5.775185 15.225266 178.276581 0.000000 0.000000 0.000000 -95.206157 -3.821794 -2.628973 -60.393229 -30.667925 17.347246 95.035846 -2.525455 4.005207 22.670392 -6.451940 -6.782196 -10.115684 -0.149136 0.910192 0.000000 0.000000 0.000000 -97.362632 -0.890588 -0.981574 -56.802852 -1.010374 -24.286865 85.467175 5.256812 -3.362167 8.451994 3.484697 14.858981 10.574591 0.629005 1.160741 0.000000 0.000000 0.000000 -96.406331 -2.359377 -3.778491 8.338129 -1.895878 1.145018 4.138106 -0.223711 0.190353 0.790072 -1.592488 -0.483872 0.000000 0.000000 0.000000 2.338163 -0.745779 0.704285 14.791283 -3.256600 0.381961 27.077139 -3.156376 0.265683 0.000000 0.000000 0.000000 1.307093 -0.355012 0.320465 1.242291 -12.316922 -8.006424 0.323892 4.589808 -1.521363 61.966680 -17.152727 -35.267648 -4.248390 -41.463118 -2.657317 0.000000 0.000000 0.000000 1.763825 -1.134551 0.061217 -3.320282 4.198859 19.013121 10.779037 7.242643 -4.115840 60.483401 22.492853 26.241355 -0.707447 23.578207 1.005221 0.000000 0.000000 0.000000 
5.830035 15.265030 178.167252 0.000000 0.000000 0.000000 -94.788395 -3.865387 -2.890042 -61.925541 -30.034278 16.785634 95.541567 -2.361009 4.103547 23.396712 -6.786508 -6.656912 -10.277317 -0.256819 1.114856 0.000000 0.000000 0.000000 -96.962998 -0.833225 -1.204486 -54.362305 -2.981588 -24.828853 82.522906 5.106287 -3.150328 6.235523 3.770056 15.921700 10.818001 0.545192 0.689552 0.000000 0.000000 0.000000 -95.843735 -2.501920 -4.106438 8.756846 -1.950320 1.267356 4.627703 -0.198506 0.202424 0.613730 -1.690548 -0.535263 0.000000 0.000000 0.000000 2.783198 -0.821490 0.684573 15.553466 -3.271608 0.114906 27.913849 -3.441992 0.238618 0.000000 0.000000 0.000000 1.781378 -0.414459 0.275591 1.683596 -10.016624 -9.303490 1.229262 3.856686 -1.184658 60.665440 -16.678284 -32.751293 -4.617653 -41.692264 -2.841373 0.000000 0.000000 0.000000 2.317496 -1.176292 0.054865 -3.551786 5.001969 19.653280 10.268586 7.400680 -4.118352 58.451960 21.871615 26.620826 -0.754968 23.409374 1.045858 0.000000 0.000000 0.000000 
